<?xml version="1.0" encoding="UTF-8"?>
<svg version="1.1" xmlns="http://www.w3.org/2000/svg" width="46" height="45">
<path d="M0 0 C15.18 0 30.36 0 46 0 C46 14.85 46 29.7 46 45 C30.82 45 15.64 45 0 45 C0 30.15 0 15.3 0 0 Z " fill="#110903" transform="translate(0,0)"/>
<path d="M0 0 C0 8.91 0 17.82 0 27 C-1.32 27 -2.64 27 -4 27 C-4.33 21.72 -4.66 16.44 -5 11 C-6.08539063 12.155 -7.17078125 13.31 -8.2890625 14.5 C-9.73356412 16.0007809 -11.17892161 17.50073834 -12.625 19 C-13.33785156 19.763125 -14.05070312 20.52625 -14.78515625 21.3125 C-20.21140263 26.88809261 -20.21140263 26.88809261 -24.5234375 27.5 C-25.34070313 27.335 -26.15796875 27.17 -27 27 C-21.90160256 20.83626579 -16.35339242 15.20402299 -10.6875 9.5625 C-9.30981445 8.17901367 -9.30981445 8.17901367 -7.90429688 6.76757812 C-7.03224609 5.89681641 -6.16019531 5.02605469 -5.26171875 4.12890625 C-4.46725342 3.33556885 -3.67278809 2.54223145 -2.85424805 1.72485352 C-1 0 -1 0 0 0 Z " fill="#F68000" transform="translate(43,12)"/>
<path d="M0 0 C1.32 0 2.64 0 4 0 C4.33 5.28 4.66 10.56 5 16 C6.08539063 14.845 7.17078125 13.69 8.2890625 12.5 C9.73356412 10.9992191 11.17892161 9.49926166 12.625 8 C13.33785156 7.236875 14.05070312 6.47375 14.78515625 5.6875 C20.21140263 0.11190739 20.21140263 0.11190739 24.5234375 -0.5 C25.34070313 -0.335 26.15796875 -0.17 27 0 C21.90160256 6.16373421 16.35339242 11.79597701 10.6875 17.4375 C9.30981445 18.82098633 9.30981445 18.82098633 7.90429688 20.23242188 C7.03224609 21.10318359 6.16019531 21.97394531 5.26171875 22.87109375 C4.46725342 23.66443115 3.67278809 24.45776855 2.85424805 25.27514648 C1 27 1 27 0 27 C0 18.09 0 9.18 0 0 Z " fill="#F47F00" transform="translate(3,11)"/>
</svg>
